<?xml version="1.0" encoding="UTF-8" standalone="no"?>
<svg
   class="img-fluid"
   id="outputsvg"
   width="3500"
   height="2051"
   viewBox="0 0 35000 20510"
   version="1.1"
   xmlns="http://www.w3.org/2000/svg"
   xmlns:svg="http://www.w3.org/2000/svg">
  <defs
     id="defs3" />
  <g
     id="g4">
    <g
       id="l4SGphFTXRHu8fSIPGQLhwC"
       fill="#004155"
       style="display:inline">
      <g
         id="g1">
        <path
           id="pFmI5Fpnq"
           d="M 0,10255 V 0 H 17500 35000 V 10255 20510 H 17500 0 Z m 17517,8678 c 18,-46 76,-179 143,-328 175,-395 229,-516 307,-688 l 84,-188 -166,-377 c -91,-207 -175,-395 -186,-418 -23,-50 -24,-110 -2,-209 16,-74 17,-75 47,-75 27,0 62,31 286,256 260,261 309,300 361,287 40,-10 78,-42 100,-86 40,-78 38,-81 -347,-467 -268,-269 -344,-350 -344,-370 0,-14 17,-103 37,-197 l 37,-173 h 32 c 28,0 34,5 47,39 19,47 66,88 112,97 48,9 112,-28 139,-81 20,-38 21,-57 24,-457 l 3,-418 h 38 c 35,0 45,6 95,61 30,34 61,78 67,98 18,53 337,884 347,900 4,8 26,20 48,28 21,7 48,17 59,22 42,18 78,32 325,126 293,112 476,182 505,194 34,14 146,58 220,86 39,14 80,30 93,35 22,9 22,9 9,-23 -8,-17 -116,-300 -242,-627 -125,-327 -232,-600 -237,-607 -5,-7 -33,-20 -61,-29 -51,-16 -125,-47 -159,-65 -10,-5 -23,-9 -29,-9 -6,0 -25,-6 -42,-14 -18,-7 -54,-21 -82,-31 -27,-10 -54,-22 -59,-26 -6,-5 -16,-9 -23,-9 -7,0 -32,-9 -56,-20 -23,-10 -64,-27 -92,-36 -27,-9 -63,-22 -80,-29 -16,-7 -52,-21 -80,-31 -27,-9 -54,-20 -60,-24 -5,-3 -37,-15 -69,-26 -44,-14 -74,-34 -118,-75 -50,-48 -58,-61 -58,-92 v -36 l 423,-3 c 478,-3 465,-1 513,-83 36,-62 28,-105 -31,-162 -41,-38 -48,-42 -117,-48 -40,-4 -304,-5 -586,-3 l -512,3 v -24 c 0,-13 90,-445 201,-960 110,-515 203,-948 206,-963 5,-24 10,-28 42,-28 33,1 39,5 67,53 41,68 42,72 54,207 5,63 14,156 19,205 6,50 19,178 31,285 11,107 25,237 30,289 6,51 12,97 15,102 3,4 220,164 483,355 262,191 510,372 550,401 86,64 81,81 52,-175 -10,-97 -31,-287 -45,-422 -51,-490 -74,-692 -77,-695 -5,-4 -456,-333 -527,-384 -252,-181 -302,-222 -336,-275 -27,-42 -35,-66 -35,-101 v -45 h 38 c 20,0 71,9 112,20 41,11 116,32 165,45 427,116 512,137 544,131 57,-9 115,-79 113,-139 -1,-34 -34,-90 -67,-111 -23,-15 -284,-89 -695,-198 -85,-22 -175,-46 -200,-52 -43,-12 -45,-14 -47,-52 -3,-36 1,-42 43,-74 66,-51 245,-240 322,-342 58,-76 71,-88 96,-88 21,0 227,114 680,376 358,207 659,383 668,392 15,15 50,135 159,547 16,61 29,123 29,139 0,20 -91,188 -291,533 -159,277 -295,516 -300,531 -18,53 42,142 107,158 42,11 91,-5 121,-39 15,-18 84,-129 152,-247 299,-519 264,-465 309,-468 l 40,-3 17,78 c 21,92 18,152 -20,378 -27,164 -50,308 -65,405 -5,30 -18,115 -29,188 l -21,133 107,132 c 59,73 172,213 252,312 80,99 186,230 235,290 49,61 127,158 174,218 47,59 90,107 94,107 4,0 8,-11 8,-24 0,-21 57,-390 167,-1079 l 36,-227 -40,-48 c -21,-26 -95,-117 -164,-201 -68,-85 -195,-243 -281,-350 -170,-210 -188,-244 -188,-350 v -51 h 41 c 32,0 67,16 182,83 244,144 541,313 559,320 47,17 131,-42 150,-104 24,-83 -10,-123 -195,-230 -322,-187 -379,-220 -537,-311 -91,-53 -202,-116 -247,-142 -44,-26 -85,-52 -91,-59 -15,-20 -82,-280 -82,-320 0,-36 1,-37 40,-37 30,0 64,14 147,63 105,62 235,137 903,522 179,103 332,195 341,204 9,9 58,176 113,381 205,773 204,772 234,803 63,67 119,74 180,21 75,-64 75,-66 -18,-414 -45,-168 -90,-334 -101,-369 -10,-35 -19,-85 -19,-112 v -49 h 40 c 30,0 57,10 101,38 62,40 96,83 554,718 52,72 101,137 108,143 8,6 81,17 163,26 82,8 165,17 184,20 19,3 85,10 145,15 61,5 151,14 200,20 50,6 173,19 275,30 102,10 226,24 275,29 50,6 94,11 99,11 4,0 -3,-15 -16,-32 -14,-18 -54,-73 -90,-123 -36,-49 -208,-286 -382,-525 l -317,-435 -177,-17 c -97,-10 -262,-27 -367,-38 -185,-20 -297,-32 -420,-46 -45,-4 -77,-16 -127,-46 -62,-37 -68,-43 -68,-74 0,-39 -37,-26 465,-160 182,-48 342,-96 358,-107 29,-20 67,-84 67,-113 0,-37 -49,-102 -93,-123 -40,-20 -47,-20 -98,-7 -30,8 -282,76 -561,150 -280,75 -526,136 -549,136 -33,0 -67,-16 -182,-83 -78,-46 -191,-112 -252,-147 -60,-35 -195,-112 -300,-173 -104,-60 -291,-168 -415,-239 -124,-71 -231,-135 -238,-141 -7,-6 -12,-25 -10,-45 l 3,-35 120,-33 c 66,-19 145,-36 175,-40 54,-5 58,-4 165,58 61,35 263,152 450,260 187,108 373,215 413,239 68,39 75,41 110,31 44,-13 95,-64 110,-108 12,-37 -10,-95 -49,-130 -20,-19 -352,-214 -632,-372 -77,-43 -78,-44 -75,-80 3,-36 4,-37 68,-55 88,-25 175,-19 480,31 135,22 295,48 355,57 61,9 148,23 194,31 l 84,14 146,-118 c 80,-65 241,-195 356,-288 116,-93 291,-234 389,-314 l 179,-145 -49,-7 c -49,-6 -616,-95 -1038,-163 -121,-19 -229,-35 -241,-35 -12,0 -42,17 -66,38 -24,21 -199,164 -389,317 -373,301 -396,315 -511,315 h -49 v -36 c 0,-35 51,-128 361,-664 40,-69 44,-80 41,-137 l -2,-61 42,-10 c 24,-5 586,-125 1250,-268 665,-142 1208,-261 1208,-264 0,-3 -543,-122 -1208,-264 -664,-143 -1227,-264 -1250,-269 l -44,-9 2,-46 c 2,-26 2,-56 1,-67 0,-11 -91,-175 -201,-365 -177,-306 -200,-350 -200,-389 v -44 l 53,6 c 129,13 185,52 841,590 l 108,89 232,-37 c 127,-20 285,-45 351,-55 66,-10 197,-30 290,-45 94,-15 232,-37 307,-49 75,-11 137,-25 136,-31 0,-5 -111,-100 -246,-209 -136,-110 -317,-256 -402,-325 -85,-69 -210,-170 -277,-224 l -122,-99 -158,26 c -465,76 -799,126 -841,126 -26,-1 -76,-9 -112,-19 -63,-17 -65,-19 -68,-53 -3,-38 1,-42 113,-103 104,-57 142,-79 167,-96 14,-11 28,-19 31,-19 3,0 41,-21 84,-46 93,-56 114,-68 213,-124 112,-63 150,-105 150,-165 0,-52 -52,-117 -106,-135 -42,-14 -65,-4 -279,120 -88,51 -176,101 -195,112 -19,11 -166,96 -327,189 -193,112 -302,169 -321,169 -15,0 -53,-7 -83,-16 -30,-10 -94,-27 -144,-39 l -90,-22 -3,-36 c -3,-34 0,-38 52,-72 30,-19 58,-35 61,-35 3,0 23,-11 45,-25 22,-14 99,-59 172,-101 73,-42 147,-84 163,-94 17,-10 59,-34 95,-55 36,-21 79,-45 95,-55 116,-68 381,-221 455,-262 19,-11 76,-44 126,-74 121,-72 120,-72 426,10 51,14 261,70 466,126 205,55 388,100 408,100 19,0 46,-7 60,-16 28,-19 74,-92 74,-119 0,-27 -45,-100 -73,-118 -23,-15 -248,-79 -607,-173 -74,-19 -152,-39 -173,-45 -36,-10 -38,-12 -35,-47 3,-33 8,-39 70,-74 l 68,-38 467,-50 c 258,-28 488,-53 513,-56 l 45,-6 222,-307 c 123,-168 303,-416 402,-551 98,-135 177,-247 176,-248 -2,-2 -133,10 -292,27 -158,17 -456,49 -661,71 -231,24 -379,44 -389,51 -8,7 -36,42 -61,78 -164,231 -509,701 -536,729 -41,44 -132,92 -173,92 -32,0 -33,-1 -33,-42 0,-24 12,-86 26,-138 177,-659 176,-654 165,-690 -14,-48 -69,-99 -113,-106 -46,-8 -104,19 -129,60 -19,31 -40,93 -79,241 -12,44 -26,94 -30,110 -5,17 -24,91 -44,165 -20,74 -45,169 -57,210 -23,82 -48,177 -83,315 -33,127 -40,142 -83,163 -21,10 -65,35 -98,54 -33,19 -118,69 -190,110 -71,41 -191,110 -265,153 -74,43 -191,111 -260,150 -69,39 -169,97 -222,128 -281,164 -289,168 -321,165 -45,-4 -46,-32 -2,-201 37,-142 55,-179 98,-193 10,-3 59,-30 108,-60 49,-30 90,-54 93,-54 2,0 40,-21 83,-46 43,-26 92,-55 108,-64 225,-130 497,-287 525,-302 80,-45 117,-102 106,-163 -9,-45 -57,-101 -101,-115 -42,-14 -69,-3 -245,100 -69,40 -197,114 -285,165 -88,51 -176,102 -195,113 -20,13 -52,22 -74,22 h -39 l 5,-67 c 3,-38 12,-86 20,-109 9,-24 83,-125 184,-250 94,-115 219,-270 279,-344 60,-74 126,-156 148,-182 l 40,-47 -12,-73 c -13,-89 -62,-399 -135,-864 -31,-193 -56,-361 -56,-373 0,-33 -13,-25 -62,37 -65,83 -336,418 -705,873 l -102,126 15,94 c 22,146 31,204 54,349 12,74 25,160 30,190 5,30 18,114 29,185 25,154 25,219 3,300 -17,58 -18,60 -54,63 -42,4 -10,51 -274,-408 -86,-151 -169,-288 -183,-304 -58,-64 -125,-65 -188,-4 -50,48 -59,87 -34,143 11,25 29,58 39,73 10,15 33,52 49,82 17,30 47,84 68,120 21,36 55,94 75,130 54,95 175,304 269,465 84,145 91,168 70,235 -6,19 -19,67 -28,105 -10,39 -35,131 -55,205 -20,74 -46,171 -57,215 -11,44 -25,85 -31,92 -5,6 -53,36 -106,66 -88,49 -236,134 -707,407 -88,51 -176,102 -195,113 -19,10 -97,55 -172,99 -179,104 -179,104 -270,-17 -91,-120 -201,-239 -287,-311 -60,-50 -71,-64 -71,-90 0,-17 6,-36 13,-41 6,-6 59,-22 117,-36 303,-76 775,-208 802,-224 18,-10 43,-39 56,-65 l 24,-46 -20,-44 c -22,-50 -44,-72 -92,-91 -33,-14 -52,-10 -420,89 -212,57 -400,104 -417,104 -32,0 -33,-1 -33,-42 0,-49 40,-127 86,-169 16,-14 103,-79 193,-145 91,-65 235,-170 320,-232 86,-62 188,-136 228,-164 l 71,-50 11,-82 c 5,-44 15,-124 20,-176 6,-52 15,-142 21,-200 6,-58 15,-143 20,-190 5,-47 14,-134 21,-195 6,-60 21,-200 32,-311 l 22,-201 -45,34 c -25,18 -119,87 -210,153 -91,66 -255,185 -365,266 -110,80 -261,190 -336,245 -75,54 -141,104 -146,111 -12,14 -26,130 -73,603 -42,420 -43,421 -81,488 -31,53 -36,57 -69,57 h -36 l -47,-217 c -25,-120 -118,-554 -207,-965 -88,-411 -160,-758 -160,-770 v -23 h 562 c 439,0 571,-3 600,-13 47,-17 95,-71 104,-116 8,-47 -28,-110 -82,-142 l -41,-24 h -416 -417 v -35 c 0,-29 9,-43 60,-92 l 59,-58 468,-179 c 257,-99 473,-185 479,-190 6,-6 62,-144 124,-306 62,-162 146,-383 188,-490 41,-107 94,-247 118,-310 24,-63 49,-123 55,-133 5,-11 9,-21 7,-23 -3,-3 -311,112 -403,151 -16,7 -86,34 -155,59 -69,26 -136,52 -150,58 -117,48 -514,198 -525,198 -19,0 -52,44 -65,88 -6,20 -15,46 -20,57 -4,11 -20,52 -35,90 -14,39 -31,78 -36,87 -5,10 -9,23 -9,29 0,11 -22,67 -41,101 -5,10 -9,23 -9,29 0,11 -22,67 -41,101 -5,10 -9,23 -9,29 0,6 -6,25 -14,42 -7,18 -24,59 -36,92 -13,33 -28,74 -35,90 -7,17 -20,53 -30,80 -25,71 -127,175 -172,175 h -32 l -3,-417 c -3,-387 -4,-421 -22,-456 -34,-69 -113,-105 -169,-76 -38,20 -76,61 -88,96 -9,28 -15,33 -43,33 h -33 l -37,-177 c -39,-190 -44,-243 -23,-243 21,0 673,-662 687,-697 7,-18 10,-43 6,-55 -20,-79 -106,-139 -169,-119 -21,7 -121,100 -297,276 -233,233 -269,265 -296,265 h -31 l -22,-100 c -26,-123 -26,-130 -2,-172 10,-18 96,-206 190,-418 l 172,-386 -273,-617 c -150,-339 -276,-616 -279,-617 -3,0 -13,19 -23,42 -10,24 -28,66 -41,93 -12,28 -46,104 -75,170 -29,66 -66,149 -82,185 -17,36 -36,79 -43,95 -7,17 -25,56 -39,87 -14,31 -26,59 -26,62 0,3 -18,45 -40,93 -91,197 -112,244 -149,333 l -31,76 170,383 c 94,212 180,402 192,423 24,41 24,39 -14,216 -11,49 -13,52 -42,52 -27,0 -63,-32 -296,-265 -180,-180 -276,-269 -298,-276 -49,-16 -119,21 -151,79 -44,81 -42,83 332,460 182,182 337,332 344,332 20,0 16,64 -11,186 -13,60 -30,135 -36,167 -11,56 -12,57 -46,57 -19,0 -34,-5 -34,-11 0,-19 -54,-81 -91,-105 -31,-19 -42,-21 -72,-13 -49,13 -82,42 -106,92 -20,42 -21,58 -21,455 v 412 h -36 c -31,0 -44,-8 -93,-58 l -56,-58 -179,-470 c -99,-258 -184,-474 -190,-481 -10,-11 -72,-38 -161,-69 -22,-8 -50,-19 -62,-24 -13,-6 -33,-14 -45,-19 -13,-5 -39,-16 -60,-25 -20,-9 -43,-16 -51,-16 -9,0 -18,-4 -21,-9 -3,-4 -19,-11 -35,-14 -16,-4 -49,-15 -73,-26 -24,-10 -117,-47 -208,-81 -91,-34 -178,-68 -195,-75 -16,-7 -64,-25 -105,-41 -41,-15 -86,-33 -100,-41 -14,-7 -30,-13 -36,-13 -5,0 -29,-9 -53,-21 -23,-11 -46,-19 -51,-17 -4,2 18,71 50,153 116,297 352,912 388,1009 41,110 30,100 197,164 189,72 534,205 575,222 25,10 88,34 141,54 83,32 104,44 148,91 42,44 51,60 51,89 v 36 h -410 c -457,0 -466,1 -516,67 -16,21 -29,53 -32,78 -4,40 -2,46 41,88 69,69 75,70 694,65 l 533,-4 v 23 c 0,17 -154,751 -269,1278 -10,44 -46,214 -81,378 l -64,297 h -36 c -32,0 -38,-5 -66,-52 -41,-69 -41,-68 -59,-248 -8,-85 -20,-195 -25,-245 -14,-121 -47,-444 -55,-527 -8,-82 40,-40 -490,-426 -220,-159 -452,-328 -515,-375 -63,-47 -115,-84 -116,-84 -1,1 3,34 7,72 5,39 13,115 19,170 5,55 19,188 30,295 31,290 38,355 49,469 14,131 29,266 36,309 5,27 20,43 83,89 197,143 300,219 400,291 251,183 362,267 362,274 0,4 14,30 30,56 21,34 30,62 30,91 0,40 -1,41 -34,41 -18,0 -56,-7 -82,-14 -68,-21 -129,-38 -349,-96 -104,-28 -215,-58 -245,-66 -119,-32 -128,-33 -173,-10 -55,28 -99,90 -92,131 8,45 46,93 90,115 22,10 83,30 135,44 52,13 156,41 230,61 74,19 176,47 226,60 50,13 117,31 148,39 31,9 81,23 111,31 l 55,16 v 42 c -1,39 -5,45 -57,87 -75,61 -189,184 -285,308 -96,123 -103,125 -218,59 -730,-422 -1068,-617 -1128,-651 -125,-70 -113,-48 -197,-361 -41,-154 -79,-296 -85,-315 -5,-19 -10,-51 -10,-70 0,-37 2,-40 245,-460 280,-483 338,-586 347,-612 8,-22 5,-36 -18,-77 -51,-95 -142,-112 -211,-39 -16,18 -119,187 -228,376 l -198,343 -36,-3 c -35,-3 -37,-5 -53,-63 -30,-109 -31,-104 102,-939 l 29,-178 -163,-202 c -89,-110 -252,-311 -361,-446 -109,-135 -228,-282 -264,-327 -35,-46 -68,-83 -71,-83 -3,0 -19,82 -34,183 -16,100 -35,220 -43,267 -7,47 -20,128 -28,180 -23,149 -31,199 -71,456 l -37,241 184,228 c 462,572 454,561 472,618 9,29 17,77 17,105 v 52 h -37 c -26,0 -57,-12 -98,-36 -33,-20 -193,-113 -355,-206 -261,-150 -298,-169 -327,-163 -41,7 -89,47 -112,94 -17,32 -18,41 -6,75 20,56 41,73 220,176 88,51 309,178 490,283 182,104 339,199 351,211 25,25 97,286 92,331 -2,26 -8,30 -35,33 -32,3 -46,-4 -283,-143 -30,-18 -206,-119 -390,-225 -184,-106 -424,-244 -532,-307 l -198,-114 -19,-67 c -11,-37 -79,-290 -151,-562 -73,-272 -141,-511 -151,-530 -24,-43 -76,-80 -112,-80 -63,0 -147,74 -147,131 0,11 45,188 100,394 55,205 100,391 100,414 0,40 -1,41 -34,41 -21,0 -60,-15 -100,-37 -66,-38 -68,-40 -368,-453 -166,-228 -302,-416 -303,-418 -1,-1 -89,-11 -196,-22 -202,-21 -534,-56 -844,-90 -99,-10 -209,-22 -245,-26 l -64,-6 25,33 c 14,19 194,266 399,549 205,283 376,518 379,522 7,8 270,39 943,109 85,8 106,15 158,46 60,35 61,37 58,77 l -3,41 -85,21 c -288,74 -661,177 -693,191 -40,17 -97,87 -97,119 0,10 9,37 21,60 15,33 32,49 70,68 47,23 53,24 97,11 296,-86 1071,-285 1108,-285 34,0 62,8 98,29 28,16 132,76 231,133 99,57 335,193 525,303 600,345 550,313 550,357 0,37 -1,38 -52,52 -161,45 -213,56 -262,56 -59,0 -18,22 -716,-382 -379,-220 -365,-213 -411,-199 -21,6 -53,29 -74,52 -35,39 -37,45 -33,91 7,72 25,87 217,195 31,17 164,94 296,171 236,137 240,140 243,174 3,38 -5,44 -93,67 -68,18 -118,13 -576,-59 -244,-39 -460,-72 -479,-75 -31,-5 -42,0 -86,37 -28,24 -185,152 -350,284 -357,288 -566,457 -619,501 -27,22 -34,34 -24,37 8,2 109,18 224,36 116,18 307,48 425,66 118,19 317,50 443,70 l 227,35 29,-23 c 43,-35 393,-318 589,-477 183,-148 213,-164 333,-178 l 49,-6 v 43 c 0,36 -20,76 -137,279 -75,130 -163,282 -195,338 -70,122 -85,160 -69,176 6,6 11,25 11,42 v 31 l -1255,270 c -690,148 -1255,271 -1255,274 0,4 2340,510 2486,538 19,3 24,11 24,33 0,16 -5,38 -12,48 -13,22 10,74 114,251 232,397 288,501 288,535 v 35 h -47 c -111,0 -145,-19 -385,-213 -123,-99 -301,-243 -396,-320 l -174,-140 -176,27 c -98,15 -274,42 -392,61 -118,19 -338,53 -487,77 -150,24 -273,45 -273,48 1,3 35,33 78,66 42,34 127,101 187,151 61,49 264,213 452,366 l 341,276 184,-29 c 100,-16 300,-48 443,-71 300,-49 431,-55 508,-26 43,17 47,21 47,52 0,32 -4,36 -127,106 -71,40 -159,91 -198,114 -76,45 -164,96 -290,168 -89,51 -128,87 -142,132 -19,58 20,123 94,156 48,22 60,19 161,-40 37,-21 84,-48 105,-60 20,-11 53,-30 72,-41 19,-11 52,-30 73,-41 20,-12 70,-41 109,-65 40,-24 75,-44 79,-44 3,0 18,-8 32,-18 15,-11 54,-34 87,-51 82,-45 239,-137 305,-179 31,-20 72,-37 96,-40 36,-4 142,20 304,67 36,11 41,72 8,96 -21,14 -567,331 -1093,632 -110,63 -208,121 -219,129 -34,24 -100,16 -274,-32 -92,-25 -194,-52 -227,-60 -33,-8 -73,-19 -90,-24 -16,-6 -166,-46 -332,-90 l -302,-80 -41,16 c -44,18 -100,87 -100,124 0,35 38,97 72,118 26,16 369,114 638,182 25,6 75,20 113,31 66,19 67,20 67,54 0,31 -5,37 -68,74 -65,39 -72,41 -217,56 -197,20 -587,62 -750,80 -115,13 -132,17 -145,37 -8,12 -94,130 -190,263 -97,132 -246,337 -332,455 -86,118 -181,249 -212,290 -30,40 -54,75 -52,77 2,2 88,-6 192,-17 276,-30 615,-66 894,-95 134,-15 247,-28 252,-31 4,-3 137,-183 295,-401 158,-218 300,-407 315,-421 42,-40 126,-82 163,-82 h 35 v 49 c 0,27 -5,62 -11,78 -6,15 -17,51 -24,78 -28,108 -56,211 -65,240 -5,17 -18,64 -29,105 -11,41 -30,111 -42,155 -33,124 -34,154 -7,195 87,128 215,96 263,-67 8,-26 75,-277 150,-557 75,-280 140,-517 145,-526 8,-15 62,-48 310,-188 25,-14 74,-42 109,-64 34,-21 64,-38 66,-38 2,0 39,-21 82,-46 43,-26 93,-55 111,-65 128,-74 206,-119 222,-129 33,-20 230,-133 276,-158 11,-6 58,-33 105,-61 61,-36 98,-51 123,-51 35,0 36,1 36,40 0,21 -6,59 -14,82 -13,44 -23,77 -51,181 -17,62 -15,61 -160,144 -38,23 -248,143 -465,268 -217,125 -406,237 -418,249 -13,11 -32,37 -42,56 -15,31 -16,39 -4,74 19,52 40,75 92,98 l 44,20 56,-28 c 31,-15 80,-43 109,-61 29,-18 54,-33 56,-33 3,0 56,-30 118,-66 349,-204 404,-234 431,-234 27,0 28,2 28,51 0,50 -21,134 -43,176 -11,20 -265,336 -520,647 l -107,131 6,55 c 3,30 19,134 34,230 30,179 77,482 134,853 l 32,207 94,-117 c 99,-122 599,-741 707,-874 l 62,-76 -29,-184 c -16,-101 -50,-313 -75,-470 -49,-309 -53,-384 -27,-469 17,-54 18,-55 55,-55 h 38 l 78,135 c 43,74 104,180 136,235 32,55 85,147 117,205 69,122 89,146 143,171 35,16 42,16 74,3 19,-8 44,-22 54,-32 31,-28 59,-91 51,-115 -7,-23 -39,-80 -335,-592 -95,-165 -192,-334 -216,-375 -26,-46 -43,-88 -43,-108 0,-18 25,-126 56,-240 31,-114 69,-256 85,-316 15,-61 36,-118 46,-127 10,-9 45,-31 78,-49 33,-18 103,-58 155,-88 52,-31 165,-96 250,-145 85,-49 182,-105 215,-125 33,-19 74,-42 90,-52 76,-43 225,-130 273,-159 29,-17 55,-31 58,-31 3,0 30,-16 60,-35 30,-19 56,-35 59,-35 2,0 21,-11 41,-25 50,-34 96,-33 120,3 64,99 269,323 360,393 52,40 55,44 52,83 l -3,40 -235,63 c -129,35 -275,74 -325,88 -49,13 -151,40 -225,60 -74,19 -146,44 -160,54 -14,10 -35,38 -48,63 -23,44 -23,46 -6,87 20,49 83,101 123,101 24,0 127,-27 601,-155 91,-25 184,-45 208,-45 41,0 42,1 42,32 0,17 -16,59 -36,95 -35,63 -78,104 -199,188 -234,163 -675,494 -680,510 -3,11 -10,67 -15,125 -11,130 -54,536 -80,770 -23,201 -48,435 -46,436 1,1 170,-122 376,-273 206,-150 452,-329 546,-398 94,-68 176,-130 181,-137 6,-7 16,-62 22,-123 6,-60 16,-150 21,-200 5,-49 14,-134 20,-187 5,-54 15,-142 20,-195 6,-54 15,-143 20,-197 12,-119 14,-126 54,-193 28,-49 34,-53 67,-53 32,0 37,4 42,28 5,22 177,827 373,1737 19,88 34,170 34,182 v 23 h -548 c -614,0 -624,1 -680,64 -17,19 -33,44 -37,56 -12,37 4,85 38,118 64,62 65,62 512,62 h 405 v 35 c 0,31 -9,44 -57,90 -46,43 -77,62 -153,91 -52,20 -114,45 -137,55 -24,11 -49,19 -56,19 -7,0 -17,4 -23,8 -5,5 -49,23 -99,41 -49,18 -99,37 -110,42 -11,5 -112,45 -225,88 -214,82 -222,87 -242,156 -8,26 -56,155 -67,180 -5,11 -15,36 -21,55 -7,19 -20,51 -28,70 -30,73 -38,94 -102,265 -29,77 -58,154 -65,170 -8,17 -25,64 -40,105 -14,41 -32,88 -39,105 -29,68 -39,91 -46,115 -4,14 -17,48 -28,77 l -21,52 62,-24 c 377,-144 1185,-456 1195,-462 12,-7 96,-217 299,-752 76,-199 80,-206 136,-263 48,-48 64,-58 93,-58 h 34 v 401 c 0,278 4,414 12,441 13,43 73,104 113,114 14,3 36,3 50,0 37,-9 92,-63 105,-101 10,-30 16,-35 44,-35 h 33 l 36,173 c 21,94 37,184 37,198 0,20 -70,95 -336,360 -309,308 -374,381 -374,424 0,37 41,95 86,121 77,45 82,42 384,-261 233,-233 269,-265 296,-265 30,0 31,1 47,75 24,108 22,168 -8,224 -13,25 -34,67 -45,94 -11,26 -29,67 -40,91 -11,25 -20,47 -20,50 0,3 -20,48 -45,100 -25,53 -45,98 -45,101 0,3 -15,38 -34,78 -19,40 -53,115 -76,168 l -41,96 264,594 c 145,327 267,605 271,617 10,29 19,28 33,-5 z" />
        <path
           id="ppfNOa82D"
           d="m 13794,11926 c -166,-45 -308,-87 -317,-94 -8,-7 -46,-68 -85,-135 -38,-67 -120,-210 -183,-317 -229,-397 -249,-434 -249,-467 0,-28 4,-33 24,-33 13,0 335,67 714,148 l 690,149 31,36 c 41,46 91,64 132,47 16,-7 29,-16 29,-21 0,-18 62,-8 337,51 153,33 281,60 286,60 4,0 7,17 7,38 v 37 l -138,79 c -880,509 -874,506 -927,505 -28,-1 -183,-37 -351,-83 z" />
        <path
           id="pRclqy9l"
           d="m 20745,11978 c -46,-29 -169,-100 -400,-233 -49,-28 -130,-75 -180,-104 -49,-29 -154,-89 -232,-134 l -143,-81 v -38 c 0,-21 4,-38 8,-38 5,0 133,-27 286,-60 153,-33 288,-60 300,-60 11,0 39,10 62,22 l 41,21 49,-24 c 27,-13 54,-34 59,-47 6,-13 19,-25 30,-28 128,-30 1374,-294 1391,-294 40,0 33,61 -16,138 -22,34 -40,64 -40,66 0,3 -42,75 -93,163 -51,87 -144,248 -207,358 -62,110 -120,208 -128,217 -18,21 -43,29 -380,118 -301,80 -333,83 -407,38 z" />
        <path
           id="pchgE0yFA"
           d="m 12960,9606 c 0,-20 14,-58 33,-93 19,-32 117,-202 219,-378 102,-176 202,-350 222,-387 42,-77 15,-64 296,-138 107,-29 234,-63 282,-76 48,-13 110,-24 139,-24 54,0 43,-6 354,175 198,114 362,209 500,287 77,44 152,89 167,99 15,10 34,19 43,19 11,0 15,10 15,35 0,31 -3,35 -37,44 -78,20 -563,121 -583,121 -11,0 -30,-9 -42,-20 -12,-11 -33,-20 -46,-20 -38,0 -91,30 -109,61 -10,16 -24,31 -33,33 -48,15 -1380,296 -1398,296 -18,0 -22,-6 -22,-34 z" />
        <path
           id="pI1l7Kt0f"
           d="m 21290,9490 c -355,-77 -655,-142 -667,-145 -13,-3 -23,-12 -23,-19 0,-22 -57,-64 -95,-72 -22,-4 -45,-1 -66,10 -18,9 -53,16 -78,16 -40,0 -554,-104 -573,-117 -11,-6 -10,-73 1,-73 5,0 73,-37 152,-83 79,-46 178,-103 219,-126 41,-24 134,-77 205,-118 72,-42 150,-87 175,-101 25,-14 73,-43 108,-64 34,-21 64,-38 67,-38 2,0 26,-13 52,-30 55,-35 84,-37 173,-10 67,20 194,54 410,110 169,44 174,46 197,88 44,79 74,130 169,295 20,34 62,107 94,162 31,55 93,163 138,240 63,108 82,148 82,177 v 38 l -47,-1 c -27,0 -338,-63 -693,-139 z" />
      </g>
    </g>
    <g
       id="l1CxOJoy9XCdpUKFWx8Dukb"
       fill="#c0002a"
       style="display:inline">
      <g
         id="g2">
        <path
           id="p18sut8y8M"
           d="m 17470,19004 c -11,-26 -20,-48 -20,-49 0,-2 -121,-277 -270,-611 -148,-334 -270,-612 -270,-619 0,-11 60,-150 126,-292 19,-40 34,-75 34,-78 0,-3 20,-48 45,-101 25,-52 45,-97 45,-100 0,-3 9,-25 20,-50 11,-24 29,-65 40,-91 11,-27 32,-69 45,-94 14,-26 25,-54 25,-63 0,-9 8,-16 18,-16 16,0 29,52 102,395 47,217 87,395 90,395 3,0 43,-178 90,-395 73,-343 86,-395 102,-395 10,0 18,5 18,11 0,7 9,30 19,53 49,102 361,816 361,825 0,5 -40,99 -89,208 -81,181 -129,288 -311,698 -35,77 -77,174 -95,215 -70,163 -88,200 -96,200 -4,0 -17,-21 -29,-46 z" />
        <path
           id="pbhsiFvK2"
           d="m 16542,17204 c -76,-46 -105,-150 -63,-232 11,-20 171,-187 355,-371 185,-184 336,-338 336,-343 0,-4 7,-8 15,-8 8,0 15,2 15,5 0,3 18,87 40,187 39,179 50,278 30,278 -5,0 -10,-10 -10,-22 0,-18 -63,40 -267,244 -148,147 -281,272 -296,278 -49,18 -109,12 -155,-16 z" />
        <path
           id="p1694bVEZl"
           d="m 18300,17215 c -20,-9 -146,-126 -297,-278 -201,-200 -263,-257 -263,-239 0,12 -4,22 -10,22 -20,0 -9,-100 30,-279 22,-100 40,-184 40,-186 0,-3 7,-5 15,-5 8,0 15,4 15,8 0,4 151,158 335,342 349,348 378,384 377,460 -1,49 -33,112 -72,140 -40,28 -123,36 -170,15 z" />
        <path
           id="p12kNkrQuO"
           d="m 14887,16683 c 3,-10 9,-22 13,-28 4,-5 21,-48 39,-95 52,-136 63,-163 77,-195 7,-17 25,-64 39,-105 15,-41 32,-88 40,-105 7,-16 36,-93 65,-170 29,-77 57,-151 63,-165 5,-14 13,-34 17,-45 5,-11 14,-36 22,-55 8,-19 21,-51 28,-70 6,-19 16,-44 21,-55 11,-25 59,-154 67,-180 20,-69 28,-74 242,-156 113,-43 214,-83 225,-88 11,-5 61,-24 110,-42 50,-18 94,-36 100,-41 5,-4 15,-8 22,-8 7,0 32,-8 56,-19 23,-10 83,-34 132,-52 71,-26 103,-45 150,-88 33,-30 62,-59 63,-63 2,-4 -180,-8 -405,-8 -376,0 -411,-2 -448,-19 -66,-31 -98,-72 -103,-135 -6,-71 2,-98 39,-141 57,-64 66,-65 681,-65 482,0 547,-2 542,-15 -4,-10 0,-15 12,-15 17,0 36,79 172,713 140,656 169,819 142,802 -5,-3 -10,-16 -11,-28 0,-16 -5,-12 -18,19 -42,92 -150,136 -233,94 -34,-18 -78,-61 -92,-90 -7,-17 -13,-160 -16,-444 l -5,-420 -60,60 c -59,59 -62,64 -138,265 -177,467 -285,741 -293,748 -5,5 -94,41 -199,81 -104,39 -405,155 -667,256 -262,101 -482,184 -487,184 -6,0 -8,-8 -4,-17 z" />
        <path
           id="pVPAP1q3C"
           d="m 20020,16669 c -41,-16 -100,-39 -130,-50 -78,-30 -182,-70 -205,-80 -29,-12 -212,-82 -505,-194 -247,-94 -283,-108 -325,-126 -11,-5 -38,-15 -59,-22 -22,-8 -44,-20 -48,-28 -10,-16 -329,-847 -347,-900 -11,-35 -114,-159 -132,-159 -4,0 -10,184 -11,418 -3,388 -4,420 -22,456 -21,42 -60,71 -119,87 -30,8 -49,7 -86,-6 -54,-18 -86,-47 -112,-102 -14,-30 -18,-33 -18,-16 -1,12 -5,25 -11,28 -6,4 -10,-13 -10,-44 0,-62 298,-1453 314,-1463 19,-13 29,-9 24,10 -5,16 28,17 573,17 h 577 l 39,31 c 77,61 97,157 48,239 -47,82 -34,80 -512,83 -233,2 -423,6 -423,9 0,4 26,32 58,62 44,41 74,61 118,75 32,11 64,23 69,26 6,4 33,15 60,24 28,10 64,24 80,31 17,7 53,20 80,29 28,9 69,26 92,36 24,11 49,20 56,20 7,0 17,4 23,9 5,4 32,16 59,26 28,10 64,24 82,31 17,8 36,14 42,14 6,0 19,4 29,9 34,18 108,49 159,65 28,9 56,22 61,29 6,9 434,1115 518,1340 8,22 3,21 -86,-14 z" />
        <path
           id="pod00WroA"
           d="m 13220,15729 c 0,-13 -43,-301 -70,-464 -11,-66 -22,-138 -25,-160 -4,-22 -27,-168 -51,-325 -25,-157 -49,-310 -54,-340 -5,-30 -11,-73 -15,-96 -7,-40 -5,-43 85,-155 93,-115 340,-421 481,-595 74,-92 90,-125 106,-221 l 5,-32 -143,83 c -79,46 -195,113 -258,150 -62,36 -115,66 -117,66 -3,0 -23,12 -47,27 -86,55 -170,93 -206,93 -42,0 -108,-29 -133,-57 -21,-23 -48,-96 -48,-130 0,-31 32,-92 62,-119 12,-12 201,-124 418,-249 217,-125 427,-245 465,-268 145,-83 143,-82 160,-144 9,-32 20,-74 25,-93 5,-19 17,-59 26,-88 9,-29 14,-55 11,-58 -3,-4 -45,17 -94,46 -48,28 -96,56 -107,62 -46,25 -243,138 -276,158 -16,10 -94,55 -222,129 -18,10 -68,39 -111,65 -43,25 -80,46 -82,46 -2,0 -32,17 -66,38 -35,22 -84,50 -109,64 -248,140 -302,173 -310,188 -5,9 -70,246 -145,526 -164,612 -160,598 -184,637 -24,39 -47,54 -104,67 -119,26 -231,-83 -211,-206 3,-22 8,-43 11,-47 5,-8 26,-87 59,-222 14,-56 25,-95 45,-155 5,-14 11,-36 13,-50 5,-23 21,-86 31,-120 2,-8 9,-31 14,-50 6,-19 16,-54 23,-77 6,-23 9,-45 6,-48 -8,-8 -104,46 -136,77 -15,14 -157,203 -315,421 -158,218 -291,398 -295,401 -5,3 -118,16 -252,31 -256,27 -543,57 -939,100 -128,14 -240,25 -248,25 -16,0 8,-37 122,-190 39,-52 131,-178 205,-280 74,-102 213,-293 310,-425 96,-133 182,-251 190,-263 13,-20 30,-24 145,-37 163,-18 553,-60 750,-80 146,-15 152,-17 219,-57 49,-29 65,-43 55,-48 -8,-5 -57,-20 -109,-34 -541,-144 -670,-181 -698,-198 -42,-26 -71,-83 -73,-146 -4,-90 78,-172 172,-172 16,0 164,35 327,79 163,43 311,82 327,86 17,5 35,10 40,11 6,2 37,10 70,19 33,9 67,18 75,20 351,96 320,90 354,71 17,-10 119,-69 226,-131 723,-416 1068,-616 1088,-631 13,-9 20,-20 15,-24 -6,-6 -111,-36 -188,-54 -5,-2 -29,-8 -51,-14 -48,-14 -60,-11 -129,33 -64,41 -223,134 -300,176 -33,17 -72,40 -87,51 -14,10 -29,18 -32,18 -4,0 -39,20 -79,44 -39,24 -89,53 -109,65 -21,11 -54,30 -73,41 -19,11 -52,30 -72,41 -21,12 -73,42 -116,66 -86,50 -137,61 -192,43 -91,-30 -140,-118 -116,-209 16,-59 47,-91 146,-148 126,-72 214,-123 290,-168 39,-23 128,-75 200,-115 l 129,-74 -44,-20 c -83,-36 -108,-34 -960,104 l -175,28 -25,-22 c -14,-13 -169,-139 -345,-282 -176,-142 -354,-286 -395,-319 -41,-34 -136,-110 -210,-169 -160,-128 -155,-124 -148,-131 3,-4 27,-8 52,-11 26,-2 214,-31 419,-64 204,-32 505,-80 668,-106 l 297,-46 178,144 c 657,532 622,505 683,522 58,16 91,20 91,11 0,-5 -168,-299 -288,-505 -98,-168 -122,-219 -122,-264 0,-23 5,-47 12,-54 9,-9 7,-12 -10,-12 -12,0 -22,-4 -22,-10 0,-19 86,-10 263,27 141,30 181,42 189,57 9,17 7,18 -15,14 -26,-5 -26,-5 -10,26 9,17 50,90 91,161 156,270 256,444 324,562 38,66 77,127 86,135 13,11 386,116 507,143 11,2 48,12 81,22 l 62,17 278,-160 c 584,-336 744,-429 744,-436 0,-5 -9,-8 -21,-8 -11,0 -17,-4 -14,-10 11,-18 86,-11 230,20 77,17 148,33 158,36 14,4 3,-25 -46,-123 -113,-226 -182,-434 -223,-673 -21,-128 -30,-494 -15,-631 31,-272 107,-536 221,-766 38,-76 68,-138 67,-139 -1,0 -74,15 -163,34 -121,27 -169,33 -200,27 l -39,-8 35,-10 c 29,-8 32,-11 15,-16 -11,-3 -31,-13 -45,-22 -14,-9 -88,-52 -165,-96 -141,-80 -314,-180 -500,-288 -263,-153 -304,-175 -324,-175 -12,0 -61,11 -109,24 -48,13 -175,47 -282,76 -281,74 -254,61 -296,138 -20,37 -120,211 -222,387 -210,363 -252,436 -252,440 0,1 12,0 26,-3 23,-4 25,-3 14,14 -9,15 -52,28 -188,57 -177,37 -262,46 -262,27 0,-5 10,-10 21,-10 18,0 19,-3 9,-14 -6,-9 -10,-36 -9,-63 3,-39 19,-75 87,-193 261,-452 322,-559 322,-568 0,-10 -23,-6 -106,17 -28,8 -95,55 -215,152 -96,77 -250,202 -344,277 -93,75 -195,158 -227,185 l -56,48 -124,-20 c -67,-11 -195,-31 -283,-45 -88,-14 -315,-50 -505,-80 -190,-30 -387,-61 -438,-67 -56,-8 -91,-17 -89,-23 2,-6 24,-27 49,-46 25,-19 90,-71 144,-115 55,-45 230,-186 389,-315 160,-129 334,-270 388,-315 155,-126 153,-125 217,-114 30,5 258,41 505,80 419,66 454,70 505,59 30,-7 66,-18 79,-25 28,-14 45,-3 -324,-214 -126,-73 -237,-136 -245,-141 -8,-6 -32,-19 -52,-30 -69,-37 -105,-77 -118,-129 -18,-77 -6,-123 47,-173 55,-53 135,-63 206,-27 23,12 170,96 327,187 585,339 663,382 686,382 22,0 90,-17 232,-56 28,-8 52,-18 52,-22 0,-9 -68,-50 -550,-327 -190,-110 -426,-246 -525,-303 -272,-158 -280,-162 -299,-162 -9,0 -268,68 -576,150 -308,82 -570,150 -583,150 -13,0 -46,-12 -74,-26 -62,-30 -93,-83 -93,-157 0,-57 37,-120 84,-144 25,-13 396,-119 481,-138 11,-2 54,-13 95,-24 41,-11 106,-29 144,-39 39,-10 71,-23 73,-29 2,-6 -23,-26 -57,-46 -52,-31 -74,-38 -158,-46 -673,-70 -936,-101 -943,-109 -3,-4 -174,-239 -379,-522 -206,-283 -395,-544 -422,-579 -26,-35 -46,-66 -43,-69 4,-5 69,1 410,38 284,31 633,68 844,90 107,11 195,21 196,22 1,2 137,190 303,418 301,414 302,415 368,453 37,20 69,35 72,32 3,-3 -42,-179 -99,-392 -57,-214 -104,-406 -104,-428 1,-91 106,-175 199,-161 52,9 100,41 125,86 10,19 78,258 151,530 72,272 140,525 151,562 l 19,67 198,114 c 541,313 925,534 994,573 42,24 98,56 125,73 26,17 51,27 55,23 12,-12 -67,-281 -88,-301 -17,-16 -202,-124 -839,-490 -173,-100 -208,-129 -224,-188 -15,-54 -14,-79 8,-121 36,-70 87,-102 166,-102 38,0 80,21 337,169 161,92 320,185 353,205 33,20 63,36 68,36 12,0 8,-40 -10,-97 -18,-57 -10,-47 -471,-617 -100,-124 -185,-232 -188,-239 -3,-8 2,-54 10,-103 9,-49 18,-107 21,-129 2,-22 7,-53 9,-70 3,-16 8,-48 11,-69 7,-51 13,-89 24,-151 5,-27 17,-99 26,-160 8,-60 20,-135 26,-165 5,-30 11,-71 13,-90 2,-19 11,-73 20,-120 8,-47 18,-107 22,-135 6,-51 8,-64 18,-125 3,-19 8,-54 12,-77 4,-24 10,-43 14,-43 5,0 48,51 98,112 49,62 178,223 287,358 109,135 272,336 362,447 114,141 163,210 163,227 0,14 -13,108 -29,208 -16,101 -51,319 -77,486 l -47,303 17,74 c 10,41 21,77 26,80 4,3 97,-149 205,-338 109,-188 212,-357 228,-375 51,-54 131,-66 202,-32 58,28 99,103 93,169 -5,47 -16,68 -353,651 -59,102 -139,240 -177,307 l -70,122 31,108 c 17,59 55,203 86,318 62,235 54,222 177,291 131,74 1001,576 1073,619 39,23 84,49 102,58 l 32,17 79,-103 c 96,-123 210,-246 285,-307 31,-25 56,-50 57,-57 0,-7 -25,-19 -55,-28 -30,-8 -80,-22 -111,-31 -31,-8 -98,-26 -148,-39 -50,-13 -152,-41 -226,-60 -74,-20 -178,-48 -230,-61 -174,-45 -221,-85 -227,-192 -3,-49 0,-63 24,-97 17,-24 48,-50 77,-64 44,-22 53,-23 109,-13 34,6 87,17 117,26 30,8 82,22 115,31 33,10 67,19 75,21 8,2 76,20 150,40 74,20 158,42 185,49 28,8 65,18 84,24 53,16 53,13 -3,-87 -24,-43 -57,-71 -261,-219 -60,-43 -159,-115 -220,-159 -60,-44 -168,-122 -238,-174 -71,-51 -132,-102 -137,-114 -4,-11 -10,-48 -14,-81 -3,-33 -11,-103 -16,-155 -6,-52 -15,-138 -21,-190 -13,-122 -16,-154 -29,-275 -6,-55 -12,-118 -15,-140 -2,-22 -9,-89 -15,-150 -12,-125 -24,-231 -41,-358 -6,-48 -10,-90 -8,-92 2,-2 72,46 154,107 83,60 330,240 550,400 530,386 482,344 490,426 8,83 41,406 55,527 5,50 17,160 25,245 18,180 18,179 59,248 33,56 46,65 46,31 0,-11 4,-17 10,-14 17,11 11,80 -21,231 -17,80 -29,147 -27,149 2,2 60,-25 128,-59 327,-166 631,-236 1030,-236 402,0 706,70 1035,239 l 131,66 -33,-150 c -33,-154 -41,-229 -23,-240 6,-3 10,3 10,14 0,35 14,24 49,-36 34,-61 45,-109 56,-253 3,-47 8,-94 10,-105 2,-11 7,-49 10,-85 3,-36 10,-101 15,-145 5,-44 12,-114 15,-155 6,-81 8,-101 25,-228 6,-45 9,-86 6,-91 -8,-12 34,-47 199,-167 83,-60 229,-166 325,-237 96,-70 245,-178 330,-239 85,-62 192,-141 238,-176 78,-60 109,-71 98,-34 -4,15 -25,198 -66,597 -6,55 -15,138 -20,185 -5,47 -14,132 -20,190 -6,58 -15,148 -21,200 -5,52 -15,132 -20,176 l -11,82 -71,50 c -40,28 -142,102 -228,164 -85,62 -229,167 -320,232 -90,66 -178,133 -196,149 -33,31 -92,132 -82,141 3,3 46,-6 95,-20 49,-14 99,-27 112,-30 13,-2 89,-23 170,-45 81,-22 158,-42 171,-45 13,-3 32,-9 43,-15 10,-5 18,-8 18,-5 0,2 39,-7 88,-20 48,-13 103,-23 124,-22 78,4 158,95 158,179 0,48 -39,119 -78,142 -28,16 -510,150 -802,223 -58,15 -110,32 -117,38 -10,8 2,23 48,61 83,68 207,201 291,312 38,51 72,95 77,97 4,3 65,-29 137,-71 71,-41 147,-85 169,-98 22,-12 112,-64 200,-115 429,-248 618,-357 700,-403 117,-65 121,-69 135,-130 7,-29 23,-90 36,-136 13,-46 26,-93 29,-105 2,-11 11,-46 19,-76 9,-30 24,-89 35,-130 11,-41 24,-91 30,-110 10,-33 7,-41 -70,-175 -107,-183 -223,-384 -269,-465 -20,-36 -54,-94 -75,-130 -21,-36 -51,-90 -68,-120 -16,-30 -38,-67 -49,-82 -33,-47 -58,-112 -58,-151 -1,-154 193,-235 296,-125 17,18 102,157 188,308 233,406 237,413 246,403 5,-4 16,-37 25,-72 19,-76 19,-80 -45,-476 -14,-89 -47,-296 -65,-415 -9,-58 -20,-127 -25,-153 l -8,-48 107,-132 c 59,-73 165,-204 236,-292 189,-234 418,-517 497,-618 38,-48 73,-85 78,-82 4,3 11,26 14,52 4,27 32,206 62,398 31,193 68,433 84,535 16,102 38,243 50,315 l 21,129 -23,31 c -12,16 -63,80 -113,141 -517,634 -525,645 -541,744 -8,46 -2,48 46,18 19,-11 107,-62 195,-113 88,-51 216,-125 285,-165 69,-40 143,-81 165,-91 106,-49 213,1 244,113 23,82 -19,167 -105,214 -32,17 -178,101 -529,304 -16,9 -65,38 -108,64 -43,25 -81,46 -83,46 -3,0 -44,24 -93,54 -49,30 -98,57 -108,60 -40,13 -61,51 -91,166 -36,135 -41,166 -27,163 10,-1 67,-34 280,-158 55,-32 156,-91 225,-130 69,-39 186,-107 260,-150 74,-43 194,-112 265,-153 72,-41 157,-91 190,-110 33,-19 77,-43 97,-54 38,-18 61,-55 72,-115 3,-15 12,-53 20,-83 16,-59 54,-205 61,-230 2,-8 17,-64 34,-125 17,-60 33,-119 36,-130 2,-11 6,-31 9,-45 6,-25 31,-115 46,-160 5,-14 11,-38 15,-55 12,-52 13,-58 36,-135 39,-135 62,-165 147,-191 85,-25 179,31 207,123 16,54 18,41 -100,478 -80,297 -98,370 -93,375 9,9 113,-54 144,-87 27,-28 372,-498 536,-729 25,-36 53,-71 61,-78 10,-8 172,-29 439,-57 233,-24 527,-55 653,-69 376,-40 369,-40 360,-24 -5,8 -46,64 -91,124 -92,125 -303,414 -574,787 l -185,256 -45,6 c -25,3 -255,28 -512,56 l -467,50 -65,36 c -36,20 -68,40 -71,44 -3,5 11,14 32,19 21,6 99,26 173,45 74,20 192,51 261,70 69,19 137,37 150,40 59,12 175,50 197,64 69,45 92,160 47,237 -61,106 -102,105 -515,-8 -432,-118 -674,-182 -742,-197 l -56,-13 -94,56 c -51,30 -109,64 -128,75 -74,41 -339,194 -455,262 -16,10 -59,34 -95,55 -36,21 -78,45 -95,55 -16,10 -90,52 -163,94 -73,42 -150,87 -172,101 -22,14 -42,25 -45,25 -17,0 -116,73 -109,79 5,4 43,15 84,25 41,9 103,26 138,37 l 63,19 292,-169 c 161,-93 308,-178 327,-189 19,-11 118,-67 220,-126 101,-58 199,-109 218,-112 128,-24 236,90 203,214 -16,59 -52,95 -144,148 -104,59 -124,71 -220,128 -43,25 -81,46 -84,46 -3,0 -17,8 -31,19 -25,17 -63,39 -167,96 -85,46 -116,68 -108,75 4,4 40,15 78,25 l 70,17 355,-56 c 195,-31 424,-67 509,-81 l 153,-24 126,102 c 70,56 199,161 287,232 88,72 285,231 438,354 152,123 277,228 277,233 0,4 -8,8 -17,8 -31,1 -317,45 -688,105 -49,8 -119,19 -155,24 -36,5 -182,28 -324,51 l -259,41 -31,-29 c -33,-31 -102,-87 -499,-406 -257,-207 -287,-226 -391,-250 -25,-6 -28,-5 -23,13 3,11 91,169 197,351 105,182 196,347 202,368 6,20 8,53 5,74 -4,28 -2,38 9,38 8,0 14,7 14,15 0,22 -33,19 -248,-28 -143,-31 -196,-47 -203,-60 -8,-14 -6,-17 11,-17 11,0 20,-3 20,-8 0,-4 -37,-70 -82,-147 -45,-77 -107,-185 -138,-240 -32,-55 -74,-128 -94,-163 -95,-164 -125,-215 -169,-294 -23,-42 -28,-44 -197,-88 -224,-58 -344,-90 -410,-110 l -65,-20 -48,30 c -27,16 -50,30 -52,30 -3,0 -33,17 -67,38 -35,21 -83,50 -108,64 -25,14 -103,59 -175,101 -71,41 -164,94 -205,118 -41,23 -140,80 -219,126 -79,46 -148,83 -153,83 -5,0 -6,5 -3,10 3,6 16,10 28,10 18,0 19,2 7,10 -26,17 -90,10 -243,-24 -81,-18 -146,-30 -145,-27 147,290 209,456 252,671 39,192 49,327 43,553 -10,373 -74,636 -233,956 -39,80 -71,147 -71,147 1,1 72,-13 157,-32 158,-34 234,-42 245,-24 3,6 -3,10 -14,10 -12,0 -21,4 -21,8 0,4 51,37 113,71 61,35 148,85 192,111 91,53 219,127 380,220 61,35 159,92 218,127 59,35 114,63 122,63 15,0 498,-126 591,-155 28,-8 58,-23 66,-33 8,-9 66,-107 128,-217 63,-110 156,-271 207,-358 51,-88 93,-161 93,-163 0,-2 16,-28 35,-59 48,-75 52,-85 26,-78 -21,5 -27,-3 -13,-23 7,-11 379,-94 420,-94 13,0 22,6 22,15 0,8 -6,15 -12,15 -9,0 -13,19 -13,63 0,55 -5,70 -44,137 -157,271 -361,629 -361,634 0,11 37,6 97,-12 50,-16 104,-56 403,-297 190,-153 368,-298 395,-322 58,-51 22,-51 365,3 848,134 1099,174 1118,174 35,0 31,4 -628,534 -129,104 -291,235 -360,291 l -125,102 -85,-13 c -97,-16 -159,-26 -315,-49 -60,-9 -119,-18 -130,-20 -75,-12 -94,-15 -125,-20 -19,-2 -46,-7 -60,-10 -14,-3 -87,-15 -164,-27 -134,-20 -141,-21 -212,-4 -41,10 -76,21 -79,26 -3,5 30,28 72,53 371,209 613,354 640,382 109,115 30,295 -129,295 -33,0 -61,-10 -113,-41 -39,-23 -223,-129 -410,-237 -187,-108 -389,-224 -449,-259 -84,-48 -115,-61 -135,-57 -35,8 -242,64 -260,70 -24,8 1,25 239,162 124,71 311,179 415,239 105,61 240,138 300,173 61,35 174,101 252,147 78,45 146,83 152,83 6,0 178,-45 383,-100 205,-56 384,-103 397,-106 13,-3 32,-9 43,-15 10,-5 18,-8 18,-5 0,3 39,-6 88,-20 222,-63 262,-66 323,-27 74,48 101,151 59,233 -25,49 -60,73 -135,92 -172,44 -712,191 -723,197 -9,5 8,21 55,48 51,31 83,43 128,47 123,14 235,26 420,46 105,11 270,28 367,38 l 177,17 317,435 c 174,239 340,467 367,505 28,39 79,108 114,155 35,46 60,86 55,88 -6,2 -75,-4 -154,-13 -78,-9 -226,-25 -328,-35 -102,-11 -225,-24 -275,-30 -49,-6 -139,-15 -200,-20 -60,-5 -126,-12 -145,-15 -19,-3 -102,-12 -184,-20 -82,-9 -155,-20 -163,-26 -7,-6 -56,-71 -108,-143 -458,-635 -492,-678 -554,-718 -33,-21 -65,-38 -71,-38 -15,0 -12,30 9,101 45,145 182,673 183,702 2,54 -21,105 -63,141 -69,59 -161,54 -230,-12 -44,-41 -23,28 -245,-812 -55,-205 -104,-372 -113,-381 -9,-9 -162,-101 -341,-204 -668,-385 -798,-460 -903,-522 -104,-61 -127,-71 -127,-56 0,19 74,280 82,290 6,7 47,33 91,59 45,26 156,89 247,142 158,91 215,124 537,311 79,45 154,96 168,112 102,122 -3,311 -159,286 -31,-5 -195,-96 -583,-324 -78,-45 -147,-83 -152,-83 -15,0 -14,33 4,94 16,53 28,69 474,619 75,93 148,185 164,206 l 27,37 -40,249 c -70,439 -168,1068 -175,1128 -4,31 -11,57 -15,57 -4,0 -57,-62 -117,-137 -61,-76 -150,-187 -199,-248 -50,-60 -155,-191 -235,-290 -80,-99 -194,-240 -253,-313 l -108,-133 5,-72 c 3,-40 8,-79 11,-87 3,-8 7,-33 10,-55 2,-22 9,-67 15,-100 6,-33 17,-105 26,-160 9,-55 20,-125 25,-155 6,-30 12,-68 14,-85 2,-16 14,-93 26,-170 22,-137 23,-141 5,-218 -9,-43 -22,-76 -27,-75 -10,4 -37,48 -279,468 -68,118 -137,230 -154,247 -59,63 -164,66 -235,7 -53,-45 -74,-126 -50,-190 6,-14 141,-252 300,-528 l 289,-502 -28,-110 c -107,-403 -144,-531 -159,-546 -16,-15 -1287,-753 -1309,-760 -6,-2 -42,38 -80,87 -81,104 -251,284 -317,335 -25,19 -44,39 -42,45 1,5 22,14 47,21 24,6 114,30 199,52 411,109 672,183 695,198 57,37 87,131 65,199 -19,59 -63,101 -119,115 -46,11 -60,8 -222,-35 -96,-26 -205,-55 -244,-65 -38,-10 -137,-37 -220,-59 -82,-23 -153,-41 -157,-41 -17,0 -6,34 27,86 34,53 84,94 336,275 71,51 522,380 527,384 3,3 26,206 78,700 14,138 38,363 54,500 15,138 26,252 24,253 -1,2 -227,-159 -501,-359 -653,-475 -683,-498 -683,-506 0,-8 -7,-68 -40,-383 -12,-107 -25,-235 -31,-285 -5,-49 -14,-142 -19,-205 -12,-135 -13,-139 -54,-207 -33,-56 -46,-65 -46,-32 0,11 -4,17 -10,14 -18,-11 -10,-86 24,-245 19,-85 33,-156 32,-157 0,0 -62,29 -136,66 -224,111 -444,179 -700,218 -159,24 -499,23 -665,-1 -256,-38 -472,-106 -694,-217 -75,-37 -136,-67 -137,-66 -1,1 13,72 32,157 34,159 42,234 24,245 -5,3 -10,-3 -10,-14 0,-34 -13,-25 -46,32 -40,67 -42,74 -54,193 -5,54 -14,143 -20,197 -5,53 -15,141 -20,195 -6,53 -15,138 -20,187 -5,50 -15,140 -21,200 -7,78 -15,115 -27,127 -9,10 -91,72 -182,138 -91,66 -333,243 -538,392 -419,306 -441,322 -450,314 -3,-4 0,-41 6,-84 16,-104 20,-147 32,-282 6,-63 15,-142 20,-175 5,-33 12,-94 15,-135 4,-41 8,-91 10,-110 2,-19 10,-98 19,-175 16,-145 19,-170 36,-345 5,-58 12,-114 15,-125 5,-16 446,-347 680,-510 119,-83 164,-125 199,-187 19,-35 31,-64 26,-66 -9,-3 -63,11 -550,143 -113,31 -226,58 -252,60 -95,8 -183,-85 -177,-188 3,-45 45,-119 79,-137 10,-5 88,-28 172,-51 84,-23 176,-47 203,-55 28,-8 59,-16 70,-19 11,-3 103,-27 205,-55 102,-28 194,-53 205,-55 54,-13 79,-22 82,-32 2,-5 -21,-29 -51,-52 -91,-70 -296,-294 -360,-393 -19,-30 -22,-29 -90,15 -64,40 -126,77 -130,77 -3,0 -29,14 -58,31 -48,29 -197,116 -273,159 -16,10 -57,33 -90,52 -33,20 -130,76 -215,125 -85,49 -198,114 -250,145 -52,30 -122,70 -155,88 -33,18 -68,40 -78,49 -10,9 -31,66 -46,127 -16,60 -55,203 -86,318 l -56,209 49,86 c 28,47 125,217 217,376 92,160 204,353 248,430 66,114 81,149 84,190 9,116 -107,209 -219,176 -59,-18 -101,-64 -166,-181 -32,-58 -85,-150 -117,-205 -32,-55 -93,-160 -135,-233 -42,-74 -81,-134 -86,-134 -12,0 -43,99 -43,141 -1,19 19,163 44,320 25,157 59,370 75,473 17,102 30,198 30,213 0,18 -21,52 -62,103 -232,286 -639,789 -731,905 -103,128 -127,152 -127,126 z m 4231,-3816 c -5,-10 -30,-51 -55,-92 -25,-41 -51,-90 -57,-108 -7,-23 -16,-33 -25,-29 -8,3 -50,9 -94,12 l -80,7 v -35 c 0,-25 8,-42 31,-64 17,-16 40,-46 51,-68 20,-40 20,-40 -41,1 -19,13 -65,33 -103,44 -59,18 -88,21 -201,17 -123,-3 -137,-6 -198,-35 -82,-38 -137,-87 -169,-150 -21,-40 -26,-65 -28,-153 -4,-126 17,-195 76,-257 61,-63 101,-77 226,-81 l 108,-4 -5,44 c -3,23 -15,70 -28,103 -23,61 -23,61 -3,100 38,78 120,106 193,65 29,-17 81,-76 81,-93 0,-2 -27,-7 -60,-10 -68,-7 -114,-28 -130,-56 -13,-25 -13,-107 0,-132 15,-26 65,-51 123,-58 l 48,-6 -50,-71 c -58,-83 -137,-149 -236,-197 -136,-66 -213,-75 -300,-32 -71,34 -128,100 -154,178 -25,72 -26,110 -6,167 8,23 15,55 15,71 0,27 -3,29 -40,29 -101,0 -263,-81 -362,-181 l -68,-69 24,64 c 154,408 469,747 871,937 179,84 452,156 603,158 47,1 52,-1 43,-16 z m 359,-14 c 141,-29 270,-73 405,-139 345,-169 608,-428 777,-763 47,-96 116,-261 100,-241 -4,5 -25,30 -46,56 -76,97 -251,194 -368,205 l -58,6 v -34 c 0,-19 7,-54 16,-79 40,-114 -39,-277 -164,-336 -75,-35 -136,-35 -234,4 -141,54 -267,156 -327,263 l -22,39 h 33 c 48,0 98,16 125,42 19,18 23,31 23,83 0,52 -4,65 -24,84 -26,25 -80,40 -138,41 -21,0 -38,3 -38,6 0,22 48,78 81,94 49,25 95,25 136,0 72,-44 85,-109 40,-201 -15,-31 -27,-68 -27,-82 v -27 h 103 c 86,0 110,4 152,24 65,30 131,104 150,169 17,58 20,195 5,249 -28,100 -118,182 -242,219 -59,18 -88,21 -201,17 -119,-4 -138,-7 -194,-32 -35,-16 -68,-35 -74,-42 -6,-8 -16,-14 -21,-14 -14,0 43,100 64,111 12,7 18,21 18,46 v 36 l -81,-8 c -45,-3 -87,-9 -94,-11 -7,-3 -26,23 -48,68 -20,40 -50,97 -68,127 l -32,54 89,-7 c 49,-4 132,-16 184,-27 z m -1931,-1593 c 58,-166 192,-298 356,-349 58,-18 94,-21 210,-21 80,0 166,5 200,13 168,37 322,124 449,254 l 78,80 -81,-154 c -103,-198 -115,-243 -108,-419 3,-100 10,-152 26,-200 12,-36 119,-259 238,-497 120,-237 214,-435 210,-439 -10,-10 -203,13 -302,36 -507,119 -943,468 -1164,930 -137,286 -192,605 -157,905 l 10,80 7,-80 c 4,-45 17,-107 28,-139 z m 3296,19 c 19,-308 -81,-674 -262,-958 -98,-154 -246,-320 -383,-429 -252,-200 -598,-336 -928,-365 l -72,-6 44,96 c 25,53 119,240 210,415 203,392 228,459 234,633 6,173 -4,212 -106,409 l -85,165 62,-67 c 117,-126 263,-215 429,-260 116,-31 350,-32 447,-1 128,41 246,137 315,258 34,60 69,185 71,254 l 1,46 8,-40 c 5,-22 11,-89 15,-150 z" />
        <path
           id="pEAXLKdgY"
           d="m 14445,11286 c -27,-13 -105,-86 -105,-100 0,-12 59,-6 178,20 101,23 122,30 122,45 0,12 -5,16 -15,13 -8,-4 -15,-2 -15,3 0,30 -111,43 -165,19 z" />
        <path
           id="pePyz9XBq"
           d="m 20412,11280 c -18,-11 -37,-18 -43,-15 -5,4 -9,-2 -9,-13 0,-16 18,-23 123,-45 67,-15 135,-27 150,-27 28,0 36,13 15,27 -7,4 -18,17 -24,28 -15,29 -92,65 -139,65 -22,0 -54,-9 -73,-20 z" />
        <path
           id="psKkiNn9J"
           d="m 14340,9330 c 0,-5 6,-13 13,-17 8,-4 22,-20 31,-35 24,-37 74,-58 138,-58 39,0 60,5 74,18 11,10 25,17 32,14 7,-2 12,5 12,16 0,16 -18,23 -127,46 -137,28 -173,32 -173,16 z" />
        <path
           id="poQS5jQ4s"
           d="m 20585,9335 c -5,-2 -58,-13 -117,-26 -123,-25 -138,-41 -67,-72 48,-21 112,-24 154,-7 35,13 75,48 75,66 0,6 7,14 15,18 41,15 -17,36 -60,21 z" />
        <path
           id="pwfpdeZza"
           d="m 18194,6052 c -16,-10 -314,-1404 -314,-1465 0,-30 4,-46 10,-42 6,3 10,16 11,28 0,16 5,12 18,-19 47,-105 167,-142 260,-81 75,50 75,50 81,520 l 5,418 61,-63 c 42,-43 67,-79 79,-113 10,-27 23,-63 30,-80 7,-16 22,-57 35,-90 12,-33 29,-74 36,-92 8,-17 14,-36 14,-42 0,-6 4,-19 9,-29 19,-34 41,-90 41,-101 0,-6 4,-19 9,-29 19,-34 41,-90 41,-101 0,-6 4,-19 9,-29 5,-9 22,-48 36,-87 15,-38 31,-79 35,-90 5,-11 14,-37 20,-57 13,-44 46,-88 65,-88 11,0 408,-150 525,-198 14,-6 81,-32 150,-58 69,-25 139,-52 155,-59 17,-7 116,-45 220,-85 105,-40 203,-79 219,-86 16,-8 37,-14 47,-14 16,0 16,2 -2,40 -10,21 -19,44 -19,50 0,5 -5,18 -10,28 -6,9 -30,69 -54,132 -24,63 -77,203 -118,310 -42,107 -126,328 -188,490 -62,162 -118,300 -124,306 -6,5 -222,91 -479,190 l -468,179 -62,60 -61,60 424,5 c 415,5 426,6 460,27 128,80 97,289 -47,320 -21,4 -286,8 -589,8 -520,0 -551,1 -546,18 5,18 -5,22 -24,9 z" />
        <path
           id="p3sBw3OT4"
           d="m 16783,6038 c 3,-10 -105,-12 -529,-10 -615,4 -623,3 -690,-63 -35,-36 -43,-51 -46,-87 -6,-83 27,-153 87,-186 26,-15 85,-18 455,-22 l 425,-5 -54,-57 c -47,-50 -65,-62 -150,-94 -53,-20 -116,-44 -141,-54 -41,-17 -386,-150 -575,-222 -167,-64 -156,-54 -197,-164 -62,-167 -478,-1244 -484,-1256 -5,-9 35,3 66,19 14,7 31,13 38,13 7,0 32,9 54,20 23,11 47,20 52,20 6,0 22,6 36,13 14,8 59,26 100,41 41,16 89,34 105,41 17,7 104,41 195,75 91,34 184,71 208,81 24,11 57,22 73,26 16,3 32,10 35,14 3,5 12,9 21,9 8,0 31,7 51,16 21,9 47,20 60,25 12,5 32,13 45,19 12,5 40,16 62,24 89,31 151,58 161,69 6,7 91,223 190,481 l 179,470 58,59 c 32,33 60,58 62,55 3,-2 5,-192 5,-422 l 1,-419 30,-43 c 35,-51 72,-73 138,-81 40,-4 54,-1 87,20 41,25 93,86 95,109 0,7 6,-3 14,-22 l 12,-35 8,36 c 5,28 -30,204 -149,761 -86,398 -156,728 -156,731 0,4 -9,7 -21,7 -13,0 -19,-5 -16,-12 z" />
        <path
           id="pr4dxprk1"
           d="m 17170,4245 c 0,-8 -6,-15 -13,-15 -22,0 -665,-653 -682,-693 -22,-52 -19,-115 8,-162 38,-68 137,-103 214,-75 15,6 148,131 296,278 204,204 267,262 267,244 0,-12 5,-22 10,-22 19,0 10,96 -25,260 -20,91 -38,173 -41,183 -7,21 -34,23 -34,2 z" />
        <path
           id="pvg0RNJyx"
           d="m 17796,4243 c -3,-10 -21,-93 -41,-186 -35,-167 -44,-257 -25,-257 6,0 10,10 10,22 0,18 63,-40 268,-244 147,-147 280,-272 295,-278 78,-29 176,7 215,78 28,51 31,115 7,163 -19,39 -663,689 -682,689 -7,0 -13,7 -13,15 0,21 -27,19 -34,-2 z" />
        <path
           id="pxZB2MRzH"
           d="m 17292,3668 c 1,-7 -7,-31 -19,-53 -31,-60 -363,-810 -363,-821 0,-15 78,-194 190,-437 22,-48 40,-90 40,-93 0,-3 12,-31 26,-62 14,-31 32,-70 39,-87 7,-16 26,-59 43,-95 16,-36 53,-119 82,-185 55,-124 80,-181 122,-275 14,-30 29,-66 33,-79 4,-12 11,-19 15,-15 9,9 564,1256 582,1306 8,24 -13,77 -167,425 -98,219 -185,412 -193,428 -9,17 -15,36 -14,43 2,6 -5,12 -16,12 -16,0 -28,-47 -103,-395 -46,-217 -86,-395 -89,-395 -3,0 -43,178 -89,395 -75,350 -86,395 -103,395 -10,0 -18,-6 -16,-12 z" />
      </g>
    </g>
    <g
       id="l40CUTb0HVmkJelFTEgHTBz"
       fill="#fffffe"
       style="display:inline">
      <g
         id="g3">
        <path
           id="pgNGeCoel"
           d="m 17391,17313 c -119,-557 -192,-899 -285,-1328 -87,-403 -298,-1385 -335,-1565 -37,-179 -371,-1731 -440,-2045 -28,-126 -51,-235 -51,-242 0,-6 24,4 53,24 77,52 317,167 432,206 242,83 465,119 735,120 268,0 478,-34 730,-119 119,-41 336,-142 424,-198 32,-20 60,-35 62,-33 3,2 -18,110 -46,238 -61,278 -400,1861 -571,2659 -66,311 -154,720 -195,910 -111,511 -179,830 -295,1373 -57,268 -106,487 -109,487 -3,0 -52,-219 -109,-487 z" />
        <path
           id="p1DS9vNToh"
           d="m 19209.291,10251.64 c 0,944.06 -765.312,1709.372 -1709.371,1709.372 -944.06,0 -1709.372,-765.312 -1709.372,-1709.372 0,-944.0598 765.312,-1709.3716 1709.372,-1709.3716 944.059,0 1709.371,765.3118 1709.371,1709.3716 z M 17215,11940 m 379,-193 c 25,-48 46,-97 46,-107 0,-24 13,-26 30,-5 6,7 33,17 58,20 26,4 61,9 77,12 l 30,5 -28,-26 c -27,-25 -67,-103 -102,-199 -9,-27 -33,-69 -52,-94 -33,-43 -36,-52 -42,-147 -8,-108 -7,-116 13,-116 9,0 17,25 25,74 27,187 109,305 256,372 85,39 233,46 333,15 161,-49 252,-159 252,-307 0,-77 -25,-145 -72,-199 -58,-66 -123,-95 -214,-95 h -71 l 26,52 c 34,70 37,172 5,215 -74,100 -245,89 -308,-20 -14,-24 -29,-57 -32,-74 -6,-29 -4,-30 20,-26 14,3 51,2 81,-2 71,-8 115,-43 115,-89 0,-57 -63,-96 -157,-96 -25,0 -43,-5 -43,-11 0,-23 62,-127 106,-177 24,-28 76,-72 115,-98 164,-109 323,-138 441,-81 67,33 111,80 146,156 32,71 41,177 18,241 -8,24 -13,46 -11,48 6,6 94,-23 158,-52 127,-57 250,-183 282,-289 67,-221 -26,-464 -228,-597 -98,-64 -179,-85 -322,-84 -432,5 -770,307 -876,784 -10,47 -19,100 -19,118 0,29 -22,54 -35,40 -8,-7 24,-192 50,-291 37,-143 104,-307 210,-513 106,-206 120,-254 113,-394 -8,-142 -43,-235 -234,-602 -91,-175 -185,-361 -209,-414 l -44,-95 -214,424 c -118,232 -227,459 -242,502 -36,106 -45,261 -21,355 9,35 54,137 100,225 141,269 206,447 246,669 24,134 24,136 1,136 -15,0 -19,-10 -24,-57 -9,-88 -51,-242 -90,-332 -120,-276 -363,-481 -642,-542 -97,-21 -267,-17 -350,9 -271,83 -444,388 -365,644 36,116 120,214 244,283 55,30 171,75 195,75 6,0 4,-17 -4,-41 -36,-101 -6,-251 66,-333 45,-50 122,-92 189,-101 99,-14 271,47 389,138 71,55 181,204 181,247 0,5 -21,10 -47,10 -61,0 -129,31 -145,65 -29,64 32,117 140,120 37,1 67,6 69,12 5,15 -33,95 -58,121 -34,37 -81,56 -139,56 -98,1 -160,-54 -168,-146 -4,-50 2,-73 43,-172 8,-17 3,-18 -71,-14 -92,4 -141,25 -196,81 -55,56 -81,134 -76,227 6,130 65,212 196,273 56,26 80,31 168,35 84,4 114,1 171,-16 180,-55 276,-183 308,-414 6,-49 10,-54 33,-39 11,6 12,31 6,114 -6,102 -8,107 -40,142 -18,20 -40,57 -50,83 -36,101 -67,159 -102,195 l -37,38 55,-7 c 30,-3 74,-14 96,-24 l 42,-18 6,37 c 3,21 36,87 72,148 l 67,111 22,-42 c 12,-22 43,-81 69,-129 z" />
        <path
           id="pYPBgSogK"
           d="m 15360,11424 c -135,-30 -362,-79 -505,-110 -143,-30 -381,-82 -530,-114 -148,-32 -515,-111 -815,-175 -644,-137 -575,-123 -2170,-466 -690,-149 -1281,-275 -1312,-281 -32,-7 -58,-14 -58,-17 0,-3 532,-120 1183,-260 650,-139 1324,-284 1497,-322 173,-38 630,-136 1015,-219 385,-82 752,-161 815,-175 63,-13 241,-51 395,-84 154,-33 383,-83 510,-110 126,-28 231,-51 233,-51 2,0 -13,28 -33,63 -160,274 -258,564 -301,887 -20,152 -14,463 11,610 22,135 79,344 121,453 44,111 145,316 185,374 16,23 29,44 29,47 0,10 -15,7 -270,-50 z" />
        <path
           id="pDknj1i60"
           d="m 19370,11475 c 0,-2 16,-30 36,-61 49,-76 156,-299 194,-404 77,-210 119,-437 127,-686 14,-431 -91,-842 -312,-1222 -35,-60 -36,-63 -13,-57 88,20 644,140 783,169 322,68 370,78 450,97 44,10 366,79 715,154 349,74 727,155 840,180 2238,480 2840,611 2840,615 0,3 -593,132 -1318,288 -724,156 -1398,301 -1497,322 -99,21 -425,91 -725,155 -300,64 -666,143 -815,175 -148,32 -398,86 -555,120 -157,34 -387,83 -513,111 -245,53 -237,51 -237,44 z" />
        <path
           id="p11AfZ5wo9"
           d="m 16285,8357 c 3,-12 25,-114 50,-227 47,-220 154,-717 186,-865 11,-49 84,-394 164,-765 79,-371 203,-947 274,-1280 72,-333 149,-690 171,-795 23,-104 64,-296 92,-425 28,-129 60,-282 73,-340 116,-551 201,-940 205,-940 5,0 35,135 191,870 66,308 190,887 363,1690 80,371 190,887 245,1145 109,511 291,1355 371,1720 27,127 50,231 50,232 0,1 -28,-16 -63,-37 -35,-21 -113,-63 -173,-93 -306,-153 -626,-227 -984,-227 -358,0 -678,74 -984,227 -60,30 -138,72 -173,93 -58,35 -63,37 -58,17 z" />
      </g>
    </g>
  </g>
</svg>
